<svg width="36" height="28" viewBox="0 0 36 28" fill="#ffb900" xmlns="http://www.w3.org/2000/svg"><path d="M19.5 17.9783C19.5 10.0955 25.338 1.8492 34.5 0L35.976 3.25987C32.6535 4.5402 29.7315 8.9976 29.406 12.0704C33.1425 12.6715 36 15.9758 36 19.9655C36 24.8446 32.124 27.6 28.2015 27.6C23.679 27.6 19.5 24.0657 19.5 17.9783V17.9783ZM0 17.9783C0 10.0955 5.838 1.8492 15 0L16.476 3.25987C13.1535 4.5402 10.2315 8.9976 9.906 12.0704C13.6425 12.6715 16.5 15.9758 16.5 19.9655C16.5 24.8446 12.624 27.6 8.7015 27.6C4.179 27.6 0 24.0657 0 17.9783Z"></path></svg>