<svg height="400" viewBox="0 0 373 400" width="373" xmlns="http://www.w3.org/2000/svg"><g fill="none" fill-rule="evenodd"><path d="m186.2 0-186.2 66.4 28.4 246.2 157.8 87.4 157.8-87.4 28.4-246.2" fill="#4a4a4a" fill-rule="nonzero"/><path d="m186 0v44.4-.2 355.8l157.8-87.4 28.4-246.2" fill="#545454" fill-rule="nonzero"/><path d="m149.112087 84.1168664c-.44.077-1.115.284-1.5.459-.385.176-1.105.387-1.6.468-.495.082-1.115.317-1.377.523s-.722.374-1.021.374-.779.218-1.066.484c-.288.267-.709.544-.936.616s-.631.349-.897.616c-.267.266-.579.484-.694.484s-.209.137-.209.305-.213.386-.473.485c-.26.098-.521.366-.581.595-.06.228-.252.415-.427.415-.176 0-.319.091-.319.202s-.27.484-.6.829c-.33.346-.6.699-.6.785s-.18.214-.4.284-.4.217-.4.328c0 .245-1.304 1.651-3.7 3.992-.99.968-2.028 1.989-2.308 2.269-.279.281-.572.511-.651.511s-.543.405-1.031.8999996c-.488.495-.968.9-1.067.9-.1 0-.336.172-.526.382s-.621.495-.957.635c-.337.139-.818.44-1.07.668-.881.796-1.594 1.254-2.181 1.398-.325.08-.708.312-.85.515-.143.204-.551.434-.906.512-.356.079-.743.274-.861.435-.118.16-.643.372-1.167.47s-1.178.355-1.453.571c-.275.217-.921.454-1.436.528s-1.086.266-1.27.427c-.214.187-1.144.362-2.6.488-1.246.107-2.559.329-2.917.493-.357.164-1.745.391-3.083.505-1.46.125-2.61.324-2.875.498-.244.159-1.011.381-1.706.493-.838.135-1.35.329-1.5239995.577-.144.205-.522.431-.841.5-.318.07-.737.303-.93.516-.194.214-.473.389-.621.389-.305 0-2.669 2.296-2.669 2.592 0 .106-.168.353-.373.55-.206.197-.483.695-.615 1.106-.133.412-.365.818-.515.902-.168.094-.356.816-.487 1.872-.118.945-.341 2.159-.497 2.698-.219.757-.298 2.871-.348 9.28-.063 8.033-.079 8.323-.488 9.016-.233.394-.533 1.047-.666 1.45-.133.404-.327.734-.431.734-.105 0-.268.204-.362.454-.309.812-4.659 5.383-6.516 6.846-.419.33-1.041.843-1.382 1.14-.341.296-.869.746-1.173 1-.467.388-3.138 3.025-4.541 4.481-.223.232-.406.508-.406.614s-.27.495-.6.865-.6.822-.6 1.005-.176.492-.39.686c-.215.195-.49.832-.611 1.416-.122.584-.351 1.17-.51 1.302-.418.347-.404 4.268.02 5.281.17.407.404 1.786.521 3.064.121 1.326.335 2.512.497 2.759.157.239.368 1.166.47 2.059.131 1.147.3 1.749.575 2.044.215.23.451.748.525 1.151.075.403.298.913.498 1.133.199.22.424.693.5 1.052.075.358.306.742.513.852.22.118.422.509.49.948.063.412.263 1.197.445 1.745.47 1.416.475 6.306.007 7.303-.18.385-.387 1.123-.46 1.64s-.348 1.232-.611 1.589c-.264.357-.479.779-.479.939 0 .405-1.325 2.36-1.695 2.503-.168.064-.305.296-.305.516 0 .219-.18.495-.4.613s-.4.343-.4.5-.257.582-.571.943c-.315.361-.632.985-.706 1.387-.073.401-.266.84-.428.974-.418.347-.406 3.201.016 4.017.171.331.387 1.278.48 2.106.116 1.04.29 1.638.562 1.938.217.239.454.685.526.99s.309.733.526.95.395.556.395.753c0 .198.405.805.9 1.35.494.546 1.029 1.262 1.188 1.592s.474.713.701.852c.226.138.411.376.411.528 0 .153.136.329.302.393s.405.343.532.621.354.506.504.506c.151 0 .333.157.403.35.071.193.316.542.544.776.228.235.91.988 1.515 1.674s1.519 1.7 2.031 2.255c.512.554.984 1.27 1.048 1.592.065.322.29.805.501 1.073s.445.936.521 1.484c.075.548.207.996.294.996.21 0 .547.925.676 1.853.058.414.283.979.5 1.256.218.277.456.86.53 1.297s.205.794.292.794c.204 0 .556.898.719 1.836.07.405.248.783.396.84.148.056.385.488.526.959.141.47.416 1.015.611 1.21s.355.618.355.94c0 .321.213.838.473 1.15.26.311.542.79.627 1.065s.323.715.528.977c.204.262.372.638.372.835 0 .196.219.618.487.936s.546.814.618 1.101.253.569.402.626.384.491.523.964c.139.474.414.979.611 1.122.198.144.359.392.359.552s.182.447.406.638c.223.191.496.685.607 1.098s.286.751.389.751.544.562.981 1.25.934 1.43 1.104 1.65c.7119995.92 1.3159995 1.83 1.5159995 2.285.117.266.412.681.655.922.243.24.601.652.795.915 1.006 1.361 1.766 2.321 2.135 2.699.227.232.412.522.412.645 0 .124.225.372.5.552.275.181.5.417.5.525s.247.437.55.731c.302.294 1 1.059 1.55 1.7s1.472 1.674 2.05 2.295 1.05 1.242 1.05 1.38.117.251.259.251c.325 0 1.741 1.431 1.741 1.758 0 .133.113.245.25.248.319.007 1.448 1.03 1.741 1.577.123.229.324.417.448.417.207 0 .851.558 3.714 3.221.579.538 1.14.979 1.248.979s.308.18.445.4c.138.22.361.4.497.4.137 0 .395.225.575.5.181.275.436.5.569.5s.55.272.927.605.977.851 1.333 1.15c.356.3 1.066.928 1.578 1.397.511.469 1.13.964 1.374 1.1 1.038.578 2.101 1.368 2.101 1.561 0 .114.263.299.584.411s.633.333.694.49c.06.157.231.286.38.286.148 0 .572.27.942.6s.777.6.905.6.396.18.595.4.464.4.589.4c.124 0 .538.266.919.592.38.325.836.595 1.011.6.175.004.482.188.681.408s.487.4.64.4.495.217.76.481c.264.265.793.585 1.174.711.382.125.802.359.934.518.133.16.358.29.501.29s.528.225.856.501c.327.276.868.556 1.201.622.334.067.775.279.981.471.207.192.7.456 1.097.587.396.131.766.356.821.501.056.144.507.364 1.003.489s1.032.358 1.193.518c.16.16.549.353.865.427.316.075.754.299.974.498s.789.449 1.264.556c.476.107 1.016.329 1.2.495.185.166.676.364 1.091.441s.865.294 1 .482c.138.193.763.445 1.43.577.651.13 1.326.363 1.5.518.173.156.665.348 1.092.427.428.08.937.304 1.132.499.206.206.914.441 1.696.563.738.115 1.489.34 1.669.501.179.16.755.355 1.278.432.524.078 1.173.315 1.443.527.318.25 1.014.445 1.975.552.817.092 1.743.31 2.058.484.314.174 1.19.406 1.946.515.755.109 1.526.336 1.712.504.224.203 1.051.368 2.454.49 1.164.101 2.419.321 2.788.489.37.167 1.684.399 2.922.514 1.302.121 2.516.347 2.883.537 1.594.824 24.669.814 26.304-.012.377-.19 1.641-.409 3.1-.538 1.355-.119 2.704-.339 2.999-.489.295-.151 1.595-.367 2.889-.48 1.606-.141 2.461-.305 2.695-.516.188-.17 1.003-.395 1.811-.5.808-.104 1.711-.325 2.007-.49s1.284-.394 2.195-.508c.912-.114 1.705-.279 1.763-.366.19-.289.893-.57 1.8-.72.492-.082 1.088-.275 1.322-.429.235-.153.992-.379 1.681-.5.689-.122 1.408-.376 1.597-.565s.737-.406 1.218-.483c.482-.077 1.02-.271 1.196-.43.176-.16.744-.369 1.262-.466.519-.097 1.109-.326 1.312-.51s.715-.43 1.139-.547.977-.375 1.23-.574c.252-.198.822-.422 1.267-.497.444-.075.856-.262.915-.415.058-.153.48-.387.936-.52s.899-.356.986-.496c.086-.14.536-.353 1-.474.463-.122.936-.339 1.049-.484.201-.257 1.091-.764 2.494-1.419.385-.18.88-.488 1.1-.685s.611-.422.87-.501c.258-.078.638-.311.845-.518.206-.206.61-.434.897-.506s.762-.35 1.055-.619c.293-.268.673-.614.844-.768s.644-.419 1.05-.589c.406-.169.739-.399.739-.51s.243-.312.54-.447c.298-.135.743-.426.991-.646.982-.873 1.835-1.5 2.039-1.5.119 0 .307-.17.418-.377s.429-.434.707-.504.505-.263.505-.429.157-.361.35-.431c.193-.071.537-.316.766-.544s.589-.556.8-.729c1.408-1.151 3.827-3.316 4.045-3.621.144-.201.381-.365.527-.365s.314-.187.374-.415c.059-.228.295-.464.523-.523.228-.06.415-.202.415-.315 0-.114.5-.711 1.112-1.327 1.324-1.334 1.268-1.272 3.077-3.418.787-.933 1.562-1.77 1.721-1.86.16-.089.29-.287.29-.441 0-.153.163-.396.363-.54.2-.143.425-.427.501-.63s.31-.414.52-.469.436-.312.501-.572.343-.715.617-1.011c.274-.295.498-.611.498-.7 0-.09.192-.342.426-.561.235-.218.527-.566.65-.773.597-1.005 1.126-1.776 1.426-2.078.183-.183.482-.602.665-.933.183-.33.532-.956.774-1.392.243-.436.581-.846.75-.911.17-.065.309-.255.309-.421 0-.386 1.352-2.51 1.597-2.51.102 0 .243-.312.315-.693.071-.381.256-.798.411-.926.155-.129.462-.604.682-1.057.372-.766.626-1.244 1.338-2.524.154-.275.418-.812.589-1.193.17-.381.429-.786.574-.9.146-.114.362-.579.481-1.034.119-.454.344-.933.502-1.064.157-.13.346-.523.42-.873s.298-.816.498-1.036c.201-.22.474-.835.607-1.367s.364-1.014.514-1.071c.175-.067.264-.402.249-.933-.013-.456-.064-.676-.113-.488-.049.187-.286.402-.527.477-.24.075-.726.371-1.08.659-1.255 1.022-1.763 1.369-2.207 1.508-.247.078-.45.221-.45.318 0 .219-1.941 1.504-2.55 1.688-.247.075-.45.217-.45.316 0 .213-1.938 1.483-2.566 1.682-.239.076-.434.227-.434.336 0 .108-.405.377-.9.596s-.9.477-.9.573-.304.275-.676.398-.831.395-1.021.604c-.189.21-.598.437-.907.505s-.61.248-.669.401c-.059.152-.491.381-.962.507-.47.127-.97.395-1.11.595-.141.2-.516.422-.835.491-.318.07-.729.294-.912.497-.184.202-.663.43-1.064.505-.402.076-.846.302-.987.504-.142.202-.55.429-.907.505-.358.076-.801.272-.986.434-.184.163-.714.381-1.177.485s-1.057.359-1.321.566c-.263.207-.835.436-1.272.51s-.794.209-.794.301c0 .204-.999.519-2.177.687-.482.068-1.087.289-1.343.491-.268.211-.992.426-1.7.506-.678.077-1.424.264-1.657.415-1.301.846-4.043.405-3.209-.517.191-.211.472-.384.623-.384.152 0 .329-.139.395-.31.14-.365 2.147-1.69 2.561-1.69.156 0 .409-.178.562-.396.152-.218.607-.534 1.011-.703.404-.168.734-.389.734-.49s.203-.247.45-.325c.248-.077.739-.375 1.093-.663 1.25-1.018 1.822-1.423 2.009-1.423.104 0 .462-.247.796-.55 1.229-1.113 1.698-1.454 2.163-1.571.261-.065.529-.29.595-.499.067-.209.205-.38.309-.38.103 0 .383-.225.622-.5s.518-.5.619-.5.426-.247.722-.55 1.296-1.225 2.223-2.05c2.542-2.263 4.238-4.006 7.099-7.3.287-.33.899-1.02 1.361-1.533.461-.512.974-1.154 1.139-1.425.764-1.257 1.421-2.142 1.589-2.142.101 0 .247-.203.325-.45.077-.247.353-.704.613-1.015s.473-.678.473-.814c0-.137.225-.445.5-.684s.5-.579.5-.757c0-.177.225-.59.5-.916.275-.327.5-.718.5-.868s.168-.391.373-.535c.205-.143.437-.549.514-.902.077-.352.301-.847.498-1.1.196-.252.467-.796.601-1.207.134-.412.358-.817.497-.9.139-.084.364-.602.5-1.152s.366-1.135.512-1.3.36-.648.476-1.074c.115-.425.352-.93.525-1.122.174-.192.401-.869.504-1.504s.318-1.3.476-1.478c.159-.177.35-.772.424-1.322.075-.55.306-1.242.515-1.537.249-.354.45-1.168.587-2.378.114-1.012.337-2.076.495-2.363s.382-1.463.499-2.613c.137-1.359.332-2.268.558-2.6.377-.555.66-17.355.333-19.802l-.148-1.107-.219.833c-.121.457-.37.997-.554 1.2-.184.202-.397.617-.473.922s-.296.665-.489.8-.414.533-.491.886c-.077.352-.302.847-.499 1.1-.198.252-.423.664-.502.915s-.361.692-.628.98c-.266.287-.484.672-.484.854 0 .183-.225.637-.5 1.01s-.5.79-.5.928c0 .137-.168.367-.373.511-.205.143-.435.544-.511.89s-.314.788-.527.981c-.214.194-.389.461-.389.593 0 .133-.27.582-.6.997s-.6.864-.6.997c0 .132-.18.404-.4.603s-.4.48-.4.624-.258.558-.573.919-.636.859-.713 1.107c-.078.247-.224.45-.325.45s-.307.293-.459.65c-.151.358-.467.821-.702 1.031-.236.21-.428.501-.428.648s-.18.38-.4.517c-.22.138-.4.359-.4.493s-.216.459-.48.722c-.263.264-.626.763-.805 1.11-.179.346-.399.629-.488.629-.09 0-.265.225-.391.5-.125.275-.358.5-.518.5s-.353.196-.429.435c-.166.522-1.335 1.765-1.659 1.765-.127 0-.23.132-.23.293 0 .162-.337.61-.75.996-.412.386-1.065 1.016-1.45 1.399-1.307 1.301-2.844 1.294-1.819-.009.23-.293.419-.683.419-.867s.225-.639.5-1.012.5-.79.5-.928c0-.137.171-.369.38-.516.209-.146.484-.651.611-1.121.126-.471.35-.902.497-.958s.319-.364.383-.684c.064-.319.293-.757.51-.974.216-.216.485-.725.596-1.13.112-.405.328-.883.479-1.063.151-.179.381-.699.511-1.155s.365-.879.521-.939.346-.52.421-1.023c.075-.502.299-1.12.498-1.372.198-.252.425-.803.504-1.225s.3-.923.49-1.113c.191-.191.446-.911.568-1.6.121-.689.351-1.452.51-1.695s.386-.966.504-1.606c.119-.641.35-1.314.514-1.495.183-.202.376-1.082.5-2.275.111-1.07.332-2.197.491-2.505.168-.324.376-1.687.495-3.241.113-1.475.343-3.204.511-3.842.394-1.494.402-5.123.015-6.674-.16-.641-.395-2.471-.522-4.066-.136-1.711-.351-3.132-.523-3.467-.16-.312-.375-1.368-.476-2.348-.133-1.288-.287-1.884-.555-2.152-.203-.203-.43-.805-.503-1.337-.072-.532-.266-1.115-.431-1.297-.164-.181-.377-.753-.474-1.271-.097-.519-.321-1.103-.498-1.298-.177-.196-.427-.665-.555-1.043s-.388-.912-.578-1.187c-.189-.275-.408-.792-.485-1.15-.077-.357-.216-.65-.307-.65s-.362-.405-.602-.9-.511-.9-.602-.9c-.092 0-.272-.319-.401-.71-.129-.39-.441-.94-.693-1.222-.997-1.116-1.149-1.327-1.414-1.961-.151-.362-.416-.712-.587-.778-.172-.066-.395-.325-.495-.575-.147-.365-.185-.255-.195.565-.007.561.131 1.308.306 1.66.181.362.402 1.598.51 2.852.119 1.389.307 2.39.504 2.692.212.323.401 1.472.58 3.528.146 1.677.37 3.499.498 4.049.324 1.395.328 11.894.004 13.1-.132.495-.361 2.184-.507 3.754-.171 1.832-.377 3.021-.574 3.322-.183.279-.386 1.325-.503 2.586-.108 1.165-.332 2.37-.498 2.678s-.399 1.093-.518 1.745c-.118.651-.353 1.336-.521 1.522-.169.186-.359.823-.424 1.416-.064.592-.282 1.367-.483 1.721-.202.355-.426.963-.499 1.352s-.305.925-.514 1.192c-.209.266-.458.898-.553 1.405s-.303 1.076-.462 1.264c-.16.189-.396.716-.526 1.172s-.362.878-.515.936c-.153.059-.34.471-.415.915-.075.445-.303 1.02-.507 1.28-.204.259-.432.714-.506 1.01-.075.297-.293.65-.486.785s-.417.547-.497.915c-.081.369-.306.829-.498 1.021-.193.193-.412.592-.485.886-.074.294-.357.728-.629.965s-.497.571-.499.744c-.003.323-.889 1.755-1.596 2.581-.22.257-.401.572-.403.7-.003.247-.543.989-1.447 1.986-.303.333-.55.705-.55.827 0 .121-.225.481-.5.801s-.5.644-.5.72c0 .077-.247.412-.55.744-.302.332-.73.845-.95 1.139s-.625.793-.9 1.11c-.275.316-.815 1.004-1.2 1.527-.385.524-1.082 1.352-1.55 1.841-.468.488-.85.969-.85 1.068s-.225.265-.5.37-.5.311-.5.459-.202.459-.45.691-.56.541-.694.686c-.31.334-.509.537-1.496 1.524-.44.44-.89.89-1 1s-.56.56-1 1-.89.89-1 1-.573.569-1.03 1.02c-.456.45-1.239 1.224-1.738 1.72-.499.495-1.019.9-1.154.9-.136 0-.349.225-.474.5-.126.275-.313.5-.416.5s-.438.247-.743.55c-.306.303-.72.682-.919.844-.2.161-.773.633-1.274 1.048-.502.414-1.161.957-1.464 1.206-.304.249-.858.739-1.232 1.09l-.679.638 1.069.133c2.405.301 11.751.011 12.337-.382.305-.204 1.213-.447 2.069-.554.84-.104 1.723-.318 1.964-.476.241-.157 1.053-.374 1.806-.48.889-.126 1.517-.334 1.795-.595.235-.221.803-.462 1.263-.536.459-.073.882-.256.94-.406s.482-.333.943-.407 1.011-.307 1.223-.519.671-.483 1.02-.602.841-.375 1.093-.57c.253-.195.726-.413 1.052-.484.326-.072.679-.293.785-.491.107-.199.421-.418.699-.488s.505-.218.505-.33.392-.371.871-.577c.479-.205.926-.517.994-.693.067-.175.299-.319.514-.319.216 0 .527-.135.692-.3.332-.331.846-.396 1.012-.127.059.096-.062.327-.27.515-.207.188-.432.56-.499.827s-.199.485-.294.485-.532.372-.971.826c-.438.454-.905.927-1.037 1.05s-.68.652-1.218 1.174c-.538.523-1.067.95-1.176.95s-.274.136-.367.302c-.251.447-3.251 2.898-3.548 2.898-.141 0-.303.18-.361.399-.057.219-.27.461-.473.537s-.487.301-.63.501c-.144.2-.355.363-.47.363s-.454.247-.755.55c-.704.71-1.39 1.229-2.004 1.519-.27.127-.72.44-1 .695-.281.255-.649.589-.82.743-.17.153-.578.394-.905.536-.327.141-.773.418-.99.614-.916.829-1.655 1.325-2.164 1.453-.298.075-.629.3-.736.499-.107.2-.384.424-.615.497-.231.074-.591.305-.8.514s-.56.38-.78.38-.56.157-.756.35c-.586.575-2.362 1.6-3.025 1.746-.34.075-.619.204-.619.288s-.337.325-.75.535c-.413.209-.965.538-1.227.731s-.669.35-.904.35c-.234 0-.757.225-1.162.5s-.809.5-.898.5-.566.213-1.061.473c-.494.26-1.241.535-1.659.611-.419.076-.924.301-1.123.5s-.711.426-1.139.506c-.427.079-.925.277-1.106.439-.181.163-.872.372-1.535.466s-1.46.35-1.771.57c-.311.219-1.008.46-1.548.534-.541.075-1.195.274-1.454.443-.258.17-1.249.387-2.201.484-1.108.112-1.861.292-2.089.499-.234.211-1.003.388-2.215.51-1.022.103-2.218.33-2.658.504-.582.231-1.873.353-4.743.449-2.169.073-3.995.183-4.056.245-.148.148.901 1.255 1.349 1.423.193.072.352.247.354.388.003.141.33.526.727.856 1.62 1.344 1.937 1.619 2.366 2.05.247.247.537.45.645.45s.367.19.577.421c.21.232.719.594 1.131.804.413.211.75.462.75.557 0 .096.203.227.45.291s.711.344 1.031.622.73.505.911.505c.182 0 .635.225 1.008.5s.792.5.931.5.414.17.611.378.869.483 1.493.611 1.239.359 1.366.512c.127.154.63.339 1.118.412.487.073 1.099.301 1.359.505.319.252 1.071.44 2.315.581 1.013.115 2.082.333 2.375.484.55.284 1.307.365 6.732.72 1.76.116 3.515.261 3.9.323l.7.112-.75.386c-.412.212-.75.459-.75.549 0 .386-1.277.677-3.782.862-1.737.128-2.841.302-3.135.494-1.355.889-20.618.884-21.975-.005-.345-.226-1.266-.38-3-.501-1.65-.114-2.662-.278-2.968-.478-.256-.168-1.068-.37-1.806-.449-.834-.089-1.523-.287-1.823-.523-.296-.233-1.039-.45-1.913-.56-.786-.099-1.58-.312-1.764-.474-.184-.163-.739-.36-1.234-.438-.495-.079-1.089-.317-1.321-.53-.231-.212-.884-.459-1.451-.549-.567-.089-1.188-.301-1.38-.47-.191-.169-.663-.372-1.048-.451s-.88-.309-1.1-.51c-.22-.202-.789-.454-1.264-.561-.476-.107-1.016-.326-1.2-.487-.185-.161-.654-.394-1.043-.519-.388-.124-.86-.406-1.048-.625-.187-.22-.567-.399-.843-.399s-.68-.178-.897-.395-.624-.452-.905-.523c-.281-.07-.593-.282-.693-.47-.101-.188-.553-.452-1.006-.588-.452-.136-.872-.376-.933-.535s-.278-.289-.482-.289c-.205 0-.68-.27-1.055-.6-.376-.33-.818-.6-.983-.6-.164 0-.416-.141-.559-.313s-.536-.456-.874-.63-.733-.483-.876-.687c-.144-.203-.392-.37-.552-.37s-.445-.18-.633-.4c-.189-.22-.442-.4-.562-.4-.121 0-.522-.27-.892-.6s-.733-.6-.807-.6-.377-.225-.674-.5-.619-.5-.716-.5-.233-.18-.303-.4-.247-.4-.395-.4c-.316 0-2.462-1.716-4.434-3.545-.264-.245-.658-.541-.875-.657-.218-.117-.396-.344-.396-.505s-.109-.293-.242-.293c-.289 0-.251.036-5.013-4.737-4.967-4.979-4.745-4.744-4.745-5.021 0-.133-.132-.242-.293-.242s-.391-.183-.51-.406c-.12-.223-.708-.896-1.307-1.495l-1.09-1.09v2.465c0 1.779.083 2.63.297 3.06.164.328.396 1.309.517 2.181.145 1.044.342 1.699.578 1.919.197.184.42.67.497 1.079s.266.871.42 1.025.379.646.5 1.094c.12.448.396 1.005.613 1.237.216.233.443.621.504.863.06.241.228.484.372.54.144.055.37.427.501.826.132.4.419.923.639 1.164.836.919 1.562 2.007 1.562 2.342 0 .192.18.396.399.454.219.057.461.27.537.473s.301.487.501.63c.2.144.363.372.363.506s.247.472.55.751.775.807 1.05 1.172.748.909 1.05 1.209c.303.299.55.637.55.75s.225.352.5.533c.275.18.5.45.5.599 0 .15.187.321.415.381.228.059.463.292.521.517.059.224.277.462.486.528.208.066.378.201.378.3 0 .098.276.461.613.806.585.598.597.645.269 1.007-.439.485-.788.482-1.133-.01-.15-.215-.67-.48-1.156-.589-.485-.109-.976-.327-1.09-.483-.115-.157-.5-.349-.856-.428-.355-.078-.759-.299-.897-.492-.137-.192-.547-.452-.909-.577-.363-.125-.893-.41-1.177-.634-.285-.224-.638-.407-.784-.407s-.358-.173-.471-.384-.481-.444-.817-.518-.718-.306-.85-.516c-.131-.21-.345-.382-.475-.382s-.491-.211-.802-.47c-.311-.258-.795-.595-1.075-.75-1.211-.665-1.798-1.102-1.898-1.41-.058-.182-.32-.384-.581-.449-.497-.125-1.193-.64-2.122-1.571-.302-.303-.616-.55-.696-.55-.081 0-.351-.202-.601-.45s-.575-.558-.723-.69c-.148-.133-.377-.358-.51-.5-.132-.143-.605-.574-1.05-.958s-.809-.801-.809-.927-.187-.277-.415-.337c-.228-.059-.461-.287-.518-.505s-.282-.443-.5-.5-.446-.29-.505-.518c-.06-.228-.23-.415-.378-.415-.149 0-.365-.178-.482-.396-.116-.217-.412-.608-.657-.868-1.419-1.507-2.997-3.529-3.326-4.263-.106-.235-.4-.656-.655-.935-.822-.899-1.299-1.625-1.437-2.188-.074-.303-.228-.55-.342-.55s-.381-.393-.594-.874c-.212-.48-.513-.978-.668-1.107-.155-.128-.343-.564-.419-.969s-.3-.85-.498-.989c-.198-.138-.423-.501-.499-.806s-.261-.691-.411-.858-.372-.742-.492-1.278c-.12-.535-.385-1.186-.588-1.445-.204-.259-.434-.809-.51-1.222-.077-.414-.273-.901-.437-1.083-.163-.182-.387-.987-.499-1.79-.116-.837-.325-1.548-.492-1.67-.162-.119-.378-.827-.491-1.61-.111-.77-.345-1.658-.521-1.975-.212-.382-.379-1.459-.496-3.2-.109-1.607-.306-2.934-.508-3.424-.691-1.668-.693-18.069-.003-19.5.221-.457.4-1.588.516-3.258.123-1.78.268-2.662.477-2.9.165-.188.364-.873.442-1.523.147-1.217.455-2.119.724-2.119.084 0 .215-.517.291-1.15.075-.633.303-1.465.506-1.85s.468-1.087.588-1.56.346-.91.502-.97.34-.437.408-.839c.069-.402.282-.956.474-1.231s.463-.844.602-1.264c.138-.42.376-.812.529-.871.153-.058.373-.462.49-.896s.343-.84.502-.901c.16-.061.29-.24.29-.398 0-.159.203-.492.45-.742.248-.249.606-.785.797-1.191.19-.405.432-.737.536-.737.105 0 .254-.202.331-.45.078-.247.355-.675.616-.95s.653-.689.872-.921.398-.487.398-.567c0-.359 4.693-5.09 6.42-6.472.704-.563 1.469-1.208 1.701-1.432s.508-.408.614-.408.391-.228.633-.506c.241-.278.708-.559 1.036-.625.335-.067.596-.247.596-.411 0-.161.27-.395.6-.519.33-.125.6-.302.6-.394s.395-.342.879-.556c.483-.214.925-.512.983-.663s.346-.335.639-.408c.293-.074.722-.311.954-.526.231-.216.615-.392.854-.392.238 0 .675-.224.97-.498.296-.274.772-.557 1.058-.629.287-.072.688-.298.892-.502s.634-.371.956-.371.838-.212 1.15-.474c.311-.261.851-.537 1.201-.613s.739-.263.866-.415c.126-.152.739-.382 1.363-.511.624-.13 1.336-.395 1.583-.589s.787-.416 1.2-.492c.414-.077.899-.272 1.078-.432.18-.161.939-.388 1.687-.505.775-.121 1.602-.39 1.921-.626.858-.634 3.683-.626 4.549.013.339.251 1.025.532 1.524.626.499.093 1.062.307 1.25.477.189.169.673.368 1.076.443s.923.313 1.155.53c.233.217.871.465 1.419.551.548.087 1.155.302 1.35.478.194.176.728.38 1.186.453s1.012.301 1.231.505c.22.205.788.43 1.263.5s1.153.293 1.507.494c.355.202.963.426 1.352.499s.913.295 1.165.493c.251.198.986.457 1.632.577.646.119 1.324.352 1.506.517.183.166.46.302.617.302.552.002 1.774.418 2.055.699.157.156.847.375 1.533.485.687.111 1.395.331 1.573.49s.752.353 1.275.43c.524.078 1.167.31 1.429.516.268.211 1.063.458 1.819.565.738.104 1.49.322 1.671.484s.779.356 1.329.43c.55.075 1.235.301 1.522.503.294.207 1.21.464 2.091.586.863.12 1.765.347 2.006.505.24.157.919.344 1.509.415s1.326.309 1.637.527c.397.28 1.098.448 2.363.567.989.092 2.001.301 2.25.464.248.163 1.193.385 2.099.495.99.119 1.791.328 2.004.521.257.233 1.051.374 2.882.514 1.389.106 2.845.326 3.234.489.417.174 2.001.383 3.856.507 1.731.116 3.642.344 4.247.507 1.519.408 6.735.406 8.082-.002.541-.164 2.016-.395 3.279-.512 1.364-.127 2.48-.335 2.752-.513.251-.164 1.048-.383 1.771-.485.844-.119 1.454-.326 1.704-.576.214-.214.71-.45 1.101-.523s.711-.217.711-.318c0-.102.383-.363.85-.581 1.318-.614 3.795-2.717 4.442-3.771.115-.186.388-.638.608-1.005.22-.366.603-.893.85-1.169.248-.277.45-.727.45-1.001 0-.273.175-.78.388-1.125.214-.346.481-1.2.593-1.898.113-.698.343-1.48.512-1.738.393-.601.396-2.067.004-2.626-.166-.238-.403-1.179-.525-2.091-.123-.912-.341-1.841-.485-2.063-.144-.221-.371-1.033-.504-1.802-.132-.77-.368-1.492-.523-1.606-.156-.113-.369-.592-.475-1.064s-.363-1.1-.57-1.395c-.208-.295-.439-.893-.513-1.329-.075-.436-.298-.907-.496-1.046-.198-.138-.421-.494-.496-.791-.074-.296-.303-.752-.509-1.014-.205-.261-.432-.741-.503-1.067-.072-.326-.297-.681-.501-.79-.203-.109-.43-.388-.503-.619-.074-.231-.307-.593-.52-.806s-.44-.654-.505-.98c-.066-.327-.247-.594-.404-.594s-.38-.27-.495-.6-.288-.6-.384-.6c-.097 0-.321-.282-.499-.626-.311-.6-.693-1.084-1.609-2.035-.232-.242-.486-.642-.564-.889-.077-.247-.26-.45-.404-.45-.145 0-.424-.247-.619-.55-.475-.735-7.882-8.124-8.447-8.426-.244-.131-.444-.364-.444-.518 0-.153-.202-.342-.45-.419-.247-.077-.824-.533-1.28-1.014-.457-.48-.913-.873-1.014-.873s-.485-.269-.852-.597c-.368-.328-.834-.649-1.036-.713-.203-.064-.368-.244-.368-.4 0-.155-.227-.339-.505-.409s-.596-.297-.707-.504-.32-.377-.464-.377-.433-.189-.643-.42c-.209-.232-.633-.552-.941-.711-.534-.276-.75-.441-1.788-1.369-.246-.22-.786-.553-1.2-.74-.413-.187-.752-.435-.752-.55 0-.116-.128-.21-.285-.21-.156 0-.549-.222-.872-.494s-.802-.588-1.065-.701c-.263-.114-.883-.522-1.378-.907s-1.282-.877-1.75-1.092c-.468-.216-.85-.475-.85-.577s-.221-.241-.492-.309c-.27-.068-.733-.348-1.029-.622-.295-.274-.687-.498-.869-.498-.183 0-.637-.225-1.01-.5s-.792-.5-.931-.5-.414-.171-.611-.381c-.197-.209-.73-.48-1.185-.601-.454-.121-.933-.349-1.064-.507-.13-.157-.5-.343-.823-.414-.322-.071-.698-.287-.836-.481-.137-.193-.52-.414-.85-.491-.913-.211-1.7-.554-1.7-.74 0-.092-.307-.225-.683-.295-.375-.07-.869-.302-1.097-.515-.229-.212-.825-.463-1.325-.556-.5-.094-1.064-.308-1.252-.478-.189-.169-.688-.371-1.109-.449s-.916-.303-1.1-.499-.867-.454-1.518-.5739996c-.651-.12-1.332-.353-1.514-.517-.182-.165-.766-.36-1.298-.432-.532-.073-1.132-.298-1.334-.5-.228-.228-.8-.412-1.518-.489-.634-.068-1.512-.285-1.952-.483s-1.375-.456-2.079-.574c-.703-.118-1.433-.354-1.622-.525-.228-.206-1.02-.37-2.35-.485-1.103-.096-2.308-.313-2.677-.482-.37-.169-1.781-.404-3.137-.522-1.545-.135-2.703-.341-3.1-.55-.547-.288-1.57-.347-7.349-.422l-6.714-.086-1.586-1.466c-2.18-2.015-2.431-2.22-3.686-2.996-.605-.374-1.31-.863-1.567-1.085-.257-.223-.582-.405-.723-.405s-.471-.167-.733-.371-.814-.481-1.225-.615c-.412-.134-.822-.375-.912-.535-.089-.16-.624-.364-1.187-.453-.564-.089-1.247-.307-1.517-.484-.271-.177-.974-.384-1.564-.459-1.113-.142-1.773-.39-2.011-.757-.16-.246-9.959-.376-11.261-.15" fill="#ba2bd2"/></g></svg>