<?xml version="1.0" encoding="utf-8"?>
<!-- Generator: Adobe Illustrator 21.1.0, SVG Export Plug-In . SVG Version: 6.00 Build 0)  -->
<svg version="1.1" id="Layer_1" xmlns="http://www.w3.org/2000/svg" xmlns:xlink="http://www.w3.org/1999/xlink" x="0px" y="0px"
	 viewBox="0 0 209 216" style="enable-background:new 0 0 209 216;" xml:space="preserve">
<style type="text/css">
	.st0{fill:#DD0031;}
	.st1{fill:#C3002F;}
	.st2{fill:#FFFFFF;}
</style>
<g>
	<polygon class="st0" points="105,9 105,9 105,9 11.9,42.2 26.1,165.3 105,209 105,209 105,209 183.9,165.3 198.1,42.2 	"/>
	<polygon class="st1" points="105,9 105,31.2 105,31.1 105,132.4 105,132.4 105,209 105,209 183.9,165.3 198.1,42.2 	"/>
	<path class="st2" d="M105,31.1L46.8,161.6l0,0h21.7l0,0l11.7-29.2h49.4l11.7,29.2l0,0H163l0,0L105,31.1L105,31.1L105,31.1L105,31.1
		L105,31.1z M122,114.4H88l17-40.9L122,114.4z"/>
</g>
</svg>
